# xmcd CD database file
#
# Track frame offsets:
#	180
#	18754
#	39734
#	57449
#	80646
#	98313
#	118192
#	135669
#	153193
#	170759
#	190678
#	210804
#	227693
#	246013
#
# Disc length: 3472 seconds
#
# Revision: 3
# Processed by: cddbd v1.5.1PL0 Copyright (c) Steve Scherf et al.
# Submitted via: CDex 1.51
#
DISCID=a90d8e0e
DTITLE=Various Artist - Viva Italia
DYEAR=2004
DGENRE=Folk
TTITLE0=Con te Partiro
TTITLE1=Nagherita
TTITLE2=La Solitudine
TTITLE3=Caruso
TTITLE4=Amor Amor
TTITLE5=Piu Bella Cosa
TTITLE6=Una Lacrima sul Viso
TTITLE7=Buona Sera Signoruina
TTITLE8=l`Italiano
TTITLE9=Senza una Donna
TTITLE10=Insieme
TTITLE11=Tornero
TTITLE12=Una Storia Importante
TTITLE13=Angeli Negri
EXTD=YEAR: 2004
EXTT0=
EXTT1=
EXTT2=
EXTT3=
EXTT4=
EXTT5=
EXTT6=
EXTT7=
EXTT8=
EXTT9=
EXTT10=
EXTT11=
EXTT12=
EXTT13=
PLAYORDER=
